<svg width="52" height="52" viewBox="0 0 52 52" fill="none" xmlns="http://www.w3.org/2000/svg">
<path d="M35.6154 19.6714H17.1538C13.7552 19.6714 11 22.3013 11 25.5455V34.3567C11 37.6009 13.7552 40.2308 17.1538 40.2308H35.6154C39.0141 40.2308 41.7692 37.6009 41.7692 34.3567V25.5455C41.7692 22.3013 39.0141 19.6714 35.6154 19.6714Z" stroke="#3ACBB6" stroke-width="2" stroke-linecap="round" stroke-linejoin="round"/>
<path d="M26.385 13.7972C28.0844 13.7972 29.462 12.4822 29.462 10.8602C29.462 9.23806 28.0844 7.9231 26.385 7.9231C24.6857 7.9231 23.3081 9.23806 23.3081 10.8602C23.3081 12.4822 24.6857 13.7972 26.385 13.7972Z" stroke="#3ACBB6" stroke-width="2" stroke-linecap="round" stroke-linejoin="round"/>
<path d="M26.3844 13.7974V19.6715M21.769 31.4197V28.4827M30.9998 28.4827V31.4197" stroke="#3ACBB6" stroke-width="2" stroke-linecap="round" stroke-linejoin="round"/>
<path d="M26 51C39.8071 51 51 39.8071 51 26C51 12.1929 39.8071 1 26 1C12.1929 1 1 12.1929 1 26C1 39.8071 12.1929 51 26 51Z" stroke="#3ACBB6" stroke-width="0.5" stroke-linecap="round" stroke-linejoin="round"/>
</svg>
